<?xml version="1.0" standalone="no"?>
<!DOCTYPE svg PUBLIC "-//W3C//DTD SVG 20010904//EN"
 "http://www.w3.org/TR/2001/REC-SVG-20010904/DTD/svg10.dtd">
<svg version="1.0" xmlns="http://www.w3.org/2000/svg"
 width="64.000000pt" height="64.000000pt" viewBox="0 0 64.000000 64.000000"
 preserveAspectRatio="xMidYMid meet">

<g transform="translate(0.000000,64.000000) scale(0.100000,-0.100000)"
fill="#000000" stroke="none">
<path d="M223 622 c-109 -39 -178 -112 -210 -221 -29 -102 4 -228 82 -306 122
-121 328 -121 450 0 91 92 118 241 64 356 -69 146 -241 223 -386 171z m227
-40 c60 -31 102 -73 131 -130 35 -68 35 -196 0 -264 -29 -57 -71 -98 -131
-130 -65 -33 -195 -33 -260 0 -60 32 -102 73 -131 130 -34 67 -35 197 -1 262
58 111 145 161 272 157 56 -2 87 -8 120 -25z"/>
<path d="M295 474 c-19 -20 -16 -43 8 -58 20 -13 50 2 55 26 3 16 -23 48 -38
48 -5 0 -16 -7 -25 -16z"/>
<path d="M288 383 c-20 -5 -23 -18 -8 -28 14 -8 13 -158 -1 -172 -18 -18 0
-33 41 -33 41 0 59 15 41 33 -6 6 -11 47 -11 97 0 103 -9 117 -62 103z"/>
</g>
</svg>
